%TF.GenerationSoftware,KiCad,Pcbnew,8.0.4-8.0.4-0~ubuntu22.04.1*%
%TF.CreationDate,2024-09-21T05:32:59+05:30*%
%TF.ProjectId,Servo_pcb_esp32,53657276-6f5f-4706-9362-5f6573703332,rev?*%
%TF.SameCoordinates,Original*%
%TF.FileFunction,Copper,L2,Bot*%
%TF.FilePolarity,Positive*%
%FSLAX46Y46*%
G04 Gerber Fmt 4.6, Leading zero omitted, Abs format (unit mm)*
G04 Created by KiCad (PCBNEW 8.0.4-8.0.4-0~ubuntu22.04.1) date 2024-09-21 05:32:59*
%MOMM*%
%LPD*%
G01*
G04 APERTURE LIST*
G04 Aperture macros list*
%AMRoundRect*
0 Rectangle with rounded corners*
0 $1 Rounding radius*
0 $2 $3 $4 $5 $6 $7 $8 $9 X,Y pos of 4 corners*
0 Add a 4 corners polygon primitive as box body*
4,1,4,$2,$3,$4,$5,$6,$7,$8,$9,$2,$3,0*
0 Add four circle primitives for the rounded corners*
1,1,$1+$1,$2,$3*
1,1,$1+$1,$4,$5*
1,1,$1+$1,$6,$7*
1,1,$1+$1,$8,$9*
0 Add four rect primitives between the rounded corners*
20,1,$1+$1,$2,$3,$4,$5,0*
20,1,$1+$1,$4,$5,$6,$7,0*
20,1,$1+$1,$6,$7,$8,$9,0*
20,1,$1+$1,$8,$9,$2,$3,0*%
G04 Aperture macros list end*
%ADD10C,0.300000*%
%TA.AperFunction,NonConductor*%
%ADD11C,0.300000*%
%TD*%
%TA.AperFunction,ComponentPad*%
%ADD12R,1.700000X1.700000*%
%TD*%
%TA.AperFunction,ComponentPad*%
%ADD13O,1.700000X1.700000*%
%TD*%
%TA.AperFunction,ComponentPad*%
%ADD14C,6.000000*%
%TD*%
%TA.AperFunction,ComponentPad*%
%ADD15RoundRect,1.500000X1.500000X1.500000X-1.500000X1.500000X-1.500000X-1.500000X1.500000X-1.500000X0*%
%TD*%
%TA.AperFunction,ComponentPad*%
%ADD16R,1.560000X1.560000*%
%TD*%
%TA.AperFunction,ComponentPad*%
%ADD17C,1.560000*%
%TD*%
%TA.AperFunction,Conductor*%
%ADD18C,2.200000*%
%TD*%
%TA.AperFunction,Conductor*%
%ADD19C,0.500000*%
%TD*%
%TA.AperFunction,Conductor*%
%ADD20C,0.200000*%
%TD*%
G04 APERTURE END LIST*
D10*
D11*
X146892855Y-110814484D02*
X146678570Y-110885912D01*
X146678570Y-110885912D02*
X146321427Y-110885912D01*
X146321427Y-110885912D02*
X146178570Y-110814484D01*
X146178570Y-110814484D02*
X146107141Y-110743055D01*
X146107141Y-110743055D02*
X146035712Y-110600198D01*
X146035712Y-110600198D02*
X146035712Y-110457341D01*
X146035712Y-110457341D02*
X146107141Y-110314484D01*
X146107141Y-110314484D02*
X146178570Y-110243055D01*
X146178570Y-110243055D02*
X146321427Y-110171626D01*
X146321427Y-110171626D02*
X146607141Y-110100198D01*
X146607141Y-110100198D02*
X146749998Y-110028769D01*
X146749998Y-110028769D02*
X146821427Y-109957341D01*
X146821427Y-109957341D02*
X146892855Y-109814484D01*
X146892855Y-109814484D02*
X146892855Y-109671626D01*
X146892855Y-109671626D02*
X146821427Y-109528769D01*
X146821427Y-109528769D02*
X146749998Y-109457341D01*
X146749998Y-109457341D02*
X146607141Y-109385912D01*
X146607141Y-109385912D02*
X146249998Y-109385912D01*
X146249998Y-109385912D02*
X146035712Y-109457341D01*
X144821427Y-110814484D02*
X144964284Y-110885912D01*
X144964284Y-110885912D02*
X145249999Y-110885912D01*
X145249999Y-110885912D02*
X145392856Y-110814484D01*
X145392856Y-110814484D02*
X145464284Y-110671626D01*
X145464284Y-110671626D02*
X145464284Y-110100198D01*
X145464284Y-110100198D02*
X145392856Y-109957341D01*
X145392856Y-109957341D02*
X145249999Y-109885912D01*
X145249999Y-109885912D02*
X144964284Y-109885912D01*
X144964284Y-109885912D02*
X144821427Y-109957341D01*
X144821427Y-109957341D02*
X144749999Y-110100198D01*
X144749999Y-110100198D02*
X144749999Y-110243055D01*
X144749999Y-110243055D02*
X145464284Y-110385912D01*
X144107142Y-110885912D02*
X144107142Y-109885912D01*
X144107142Y-110171626D02*
X144035713Y-110028769D01*
X144035713Y-110028769D02*
X143964285Y-109957341D01*
X143964285Y-109957341D02*
X143821427Y-109885912D01*
X143821427Y-109885912D02*
X143678570Y-109885912D01*
X143321428Y-109885912D02*
X142964285Y-110885912D01*
X142964285Y-110885912D02*
X142607142Y-109885912D01*
X141821428Y-110885912D02*
X141964285Y-110814484D01*
X141964285Y-110814484D02*
X142035714Y-110743055D01*
X142035714Y-110743055D02*
X142107142Y-110600198D01*
X142107142Y-110600198D02*
X142107142Y-110171626D01*
X142107142Y-110171626D02*
X142035714Y-110028769D01*
X142035714Y-110028769D02*
X141964285Y-109957341D01*
X141964285Y-109957341D02*
X141821428Y-109885912D01*
X141821428Y-109885912D02*
X141607142Y-109885912D01*
X141607142Y-109885912D02*
X141464285Y-109957341D01*
X141464285Y-109957341D02*
X141392857Y-110028769D01*
X141392857Y-110028769D02*
X141321428Y-110171626D01*
X141321428Y-110171626D02*
X141321428Y-110600198D01*
X141321428Y-110600198D02*
X141392857Y-110743055D01*
X141392857Y-110743055D02*
X141464285Y-110814484D01*
X141464285Y-110814484D02*
X141607142Y-110885912D01*
X141607142Y-110885912D02*
X141821428Y-110885912D01*
X138892857Y-110814484D02*
X139035714Y-110885912D01*
X139035714Y-110885912D02*
X139321428Y-110885912D01*
X139321428Y-110885912D02*
X139464285Y-110814484D01*
X139464285Y-110814484D02*
X139535714Y-110743055D01*
X139535714Y-110743055D02*
X139607142Y-110600198D01*
X139607142Y-110600198D02*
X139607142Y-110171626D01*
X139607142Y-110171626D02*
X139535714Y-110028769D01*
X139535714Y-110028769D02*
X139464285Y-109957341D01*
X139464285Y-109957341D02*
X139321428Y-109885912D01*
X139321428Y-109885912D02*
X139035714Y-109885912D01*
X139035714Y-109885912D02*
X138892857Y-109957341D01*
X138035714Y-110885912D02*
X138178571Y-110814484D01*
X138178571Y-110814484D02*
X138250000Y-110743055D01*
X138250000Y-110743055D02*
X138321428Y-110600198D01*
X138321428Y-110600198D02*
X138321428Y-110171626D01*
X138321428Y-110171626D02*
X138250000Y-110028769D01*
X138250000Y-110028769D02*
X138178571Y-109957341D01*
X138178571Y-109957341D02*
X138035714Y-109885912D01*
X138035714Y-109885912D02*
X137821428Y-109885912D01*
X137821428Y-109885912D02*
X137678571Y-109957341D01*
X137678571Y-109957341D02*
X137607143Y-110028769D01*
X137607143Y-110028769D02*
X137535714Y-110171626D01*
X137535714Y-110171626D02*
X137535714Y-110600198D01*
X137535714Y-110600198D02*
X137607143Y-110743055D01*
X137607143Y-110743055D02*
X137678571Y-110814484D01*
X137678571Y-110814484D02*
X137821428Y-110885912D01*
X137821428Y-110885912D02*
X138035714Y-110885912D01*
X136892857Y-109885912D02*
X136892857Y-110885912D01*
X136892857Y-110028769D02*
X136821428Y-109957341D01*
X136821428Y-109957341D02*
X136678571Y-109885912D01*
X136678571Y-109885912D02*
X136464285Y-109885912D01*
X136464285Y-109885912D02*
X136321428Y-109957341D01*
X136321428Y-109957341D02*
X136250000Y-110100198D01*
X136250000Y-110100198D02*
X136250000Y-110885912D01*
X135749999Y-109885912D02*
X135178571Y-109885912D01*
X135535714Y-109385912D02*
X135535714Y-110671626D01*
X135535714Y-110671626D02*
X135464285Y-110814484D01*
X135464285Y-110814484D02*
X135321428Y-110885912D01*
X135321428Y-110885912D02*
X135178571Y-110885912D01*
X134678571Y-110885912D02*
X134678571Y-109885912D01*
X134678571Y-110171626D02*
X134607142Y-110028769D01*
X134607142Y-110028769D02*
X134535714Y-109957341D01*
X134535714Y-109957341D02*
X134392856Y-109885912D01*
X134392856Y-109885912D02*
X134249999Y-109885912D01*
X133535714Y-110885912D02*
X133678571Y-110814484D01*
X133678571Y-110814484D02*
X133750000Y-110743055D01*
X133750000Y-110743055D02*
X133821428Y-110600198D01*
X133821428Y-110600198D02*
X133821428Y-110171626D01*
X133821428Y-110171626D02*
X133750000Y-110028769D01*
X133750000Y-110028769D02*
X133678571Y-109957341D01*
X133678571Y-109957341D02*
X133535714Y-109885912D01*
X133535714Y-109885912D02*
X133321428Y-109885912D01*
X133321428Y-109885912D02*
X133178571Y-109957341D01*
X133178571Y-109957341D02*
X133107143Y-110028769D01*
X133107143Y-110028769D02*
X133035714Y-110171626D01*
X133035714Y-110171626D02*
X133035714Y-110600198D01*
X133035714Y-110600198D02*
X133107143Y-110743055D01*
X133107143Y-110743055D02*
X133178571Y-110814484D01*
X133178571Y-110814484D02*
X133321428Y-110885912D01*
X133321428Y-110885912D02*
X133535714Y-110885912D01*
X132178571Y-110885912D02*
X132321428Y-110814484D01*
X132321428Y-110814484D02*
X132392857Y-110671626D01*
X132392857Y-110671626D02*
X132392857Y-109385912D01*
X140892857Y-113300828D02*
X140892857Y-111800828D01*
X140892857Y-111800828D02*
X140321428Y-111800828D01*
X140321428Y-111800828D02*
X140178571Y-111872257D01*
X140178571Y-111872257D02*
X140107142Y-111943685D01*
X140107142Y-111943685D02*
X140035714Y-112086542D01*
X140035714Y-112086542D02*
X140035714Y-112300828D01*
X140035714Y-112300828D02*
X140107142Y-112443685D01*
X140107142Y-112443685D02*
X140178571Y-112515114D01*
X140178571Y-112515114D02*
X140321428Y-112586542D01*
X140321428Y-112586542D02*
X140892857Y-112586542D01*
X138535714Y-113157971D02*
X138607142Y-113229400D01*
X138607142Y-113229400D02*
X138821428Y-113300828D01*
X138821428Y-113300828D02*
X138964285Y-113300828D01*
X138964285Y-113300828D02*
X139178571Y-113229400D01*
X139178571Y-113229400D02*
X139321428Y-113086542D01*
X139321428Y-113086542D02*
X139392857Y-112943685D01*
X139392857Y-112943685D02*
X139464285Y-112657971D01*
X139464285Y-112657971D02*
X139464285Y-112443685D01*
X139464285Y-112443685D02*
X139392857Y-112157971D01*
X139392857Y-112157971D02*
X139321428Y-112015114D01*
X139321428Y-112015114D02*
X139178571Y-111872257D01*
X139178571Y-111872257D02*
X138964285Y-111800828D01*
X138964285Y-111800828D02*
X138821428Y-111800828D01*
X138821428Y-111800828D02*
X138607142Y-111872257D01*
X138607142Y-111872257D02*
X138535714Y-111943685D01*
X137392857Y-112515114D02*
X137178571Y-112586542D01*
X137178571Y-112586542D02*
X137107142Y-112657971D01*
X137107142Y-112657971D02*
X137035714Y-112800828D01*
X137035714Y-112800828D02*
X137035714Y-113015114D01*
X137035714Y-113015114D02*
X137107142Y-113157971D01*
X137107142Y-113157971D02*
X137178571Y-113229400D01*
X137178571Y-113229400D02*
X137321428Y-113300828D01*
X137321428Y-113300828D02*
X137892857Y-113300828D01*
X137892857Y-113300828D02*
X137892857Y-111800828D01*
X137892857Y-111800828D02*
X137392857Y-111800828D01*
X137392857Y-111800828D02*
X137250000Y-111872257D01*
X137250000Y-111872257D02*
X137178571Y-111943685D01*
X137178571Y-111943685D02*
X137107142Y-112086542D01*
X137107142Y-112086542D02*
X137107142Y-112229400D01*
X137107142Y-112229400D02*
X137178571Y-112372257D01*
X137178571Y-112372257D02*
X137250000Y-112443685D01*
X137250000Y-112443685D02*
X137392857Y-112515114D01*
X137392857Y-112515114D02*
X137892857Y-112515114D01*
D12*
%TO.P,J16,1,Pin_1*%
%TO.N,s16*%
X155600000Y-88400000D03*
D13*
%TO.P,J16,2,Pin_2*%
%TO.N,+5V*%
X158140000Y-88400000D03*
%TO.P,J16,3,Pin_3*%
%TO.N,GND*%
X160680000Y-88400000D03*
%TD*%
D12*
%TO.P,J15,1,Pin_1*%
%TO.N,s15*%
X155600000Y-92200000D03*
D13*
%TO.P,J15,2,Pin_2*%
%TO.N,+5V*%
X158140000Y-92200000D03*
%TO.P,J15,3,Pin_3*%
%TO.N,GND*%
X160680000Y-92200000D03*
%TD*%
D12*
%TO.P,J14,1,Pin_1*%
%TO.N,s14*%
X155600000Y-96000000D03*
D13*
%TO.P,J14,2,Pin_2*%
%TO.N,+5V*%
X158140000Y-96000000D03*
%TO.P,J14,3,Pin_3*%
%TO.N,GND*%
X160680000Y-96000000D03*
%TD*%
D12*
%TO.P,J13,1,Pin_1*%
%TO.N,s13*%
X155600000Y-99800000D03*
D13*
%TO.P,J13,2,Pin_2*%
%TO.N,+5V*%
X158140000Y-99800000D03*
%TO.P,J13,3,Pin_3*%
%TO.N,GND*%
X160680000Y-99800000D03*
%TD*%
D12*
%TO.P,J12,1,Pin_1*%
%TO.N,s12*%
X155600000Y-103600000D03*
D13*
%TO.P,J12,2,Pin_2*%
%TO.N,+5V*%
X158140000Y-103600000D03*
%TO.P,J12,3,Pin_3*%
%TO.N,GND*%
X160680000Y-103600000D03*
%TD*%
D12*
%TO.P,J11,1,Pin_1*%
%TO.N,s11*%
X155600000Y-107400000D03*
D13*
%TO.P,J11,2,Pin_2*%
%TO.N,+5V*%
X158140000Y-107400000D03*
%TO.P,J11,3,Pin_3*%
%TO.N,GND*%
X160680000Y-107400000D03*
%TD*%
D12*
%TO.P,J10,1,Pin_1*%
%TO.N,s10*%
X155600000Y-111200000D03*
D13*
%TO.P,J10,2,Pin_2*%
%TO.N,+5V*%
X158140000Y-111200000D03*
%TO.P,J10,3,Pin_3*%
%TO.N,GND*%
X160680000Y-111200000D03*
%TD*%
D14*
%TO.P,J25,2,Pin_2*%
%TO.N,GND*%
X119800000Y-60000000D03*
D15*
%TO.P,J25,1,Pin_1*%
%TO.N,+5V*%
X127000000Y-60000000D03*
%TD*%
D13*
%TO.P,J9,3,Pin_3*%
%TO.N,GND*%
X160680000Y-115000000D03*
%TO.P,J9,2,Pin_2*%
%TO.N,+5V*%
X158140000Y-115000000D03*
D12*
%TO.P,J9,1,Pin_1*%
%TO.N,s9*%
X155600000Y-115000000D03*
%TD*%
D13*
%TO.P,J8,3,Pin_3*%
%TO.N,GND*%
X117520000Y-111200000D03*
%TO.P,J8,2,Pin_2*%
%TO.N,+5V*%
X120060000Y-111200000D03*
D12*
%TO.P,J8,1,Pin_1*%
%TO.N,s8*%
X122600000Y-111200000D03*
%TD*%
D13*
%TO.P,J7,3,Pin_3*%
%TO.N,GND*%
X117520000Y-107400000D03*
%TO.P,J7,2,Pin_2*%
%TO.N,+5V*%
X120060000Y-107400000D03*
D12*
%TO.P,J7,1,Pin_1*%
%TO.N,s7*%
X122600000Y-107400000D03*
%TD*%
D13*
%TO.P,J6,3,Pin_3*%
%TO.N,GND*%
X117520000Y-103600000D03*
%TO.P,J6,2,Pin_2*%
%TO.N,+5V*%
X120060000Y-103600000D03*
D12*
%TO.P,J6,1,Pin_1*%
%TO.N,s6*%
X122600000Y-103600000D03*
%TD*%
D13*
%TO.P,J5,3,Pin_3*%
%TO.N,GND*%
X117520000Y-99800000D03*
%TO.P,J5,2,Pin_2*%
%TO.N,+5V*%
X120060000Y-99800000D03*
D12*
%TO.P,J5,1,Pin_1*%
%TO.N,s5*%
X122600000Y-99800000D03*
%TD*%
D13*
%TO.P,J4,3,Pin_3*%
%TO.N,GND*%
X117520000Y-96000000D03*
%TO.P,J4,2,Pin_2*%
%TO.N,+5V*%
X120060000Y-96000000D03*
D12*
%TO.P,J4,1,Pin_1*%
%TO.N,s4*%
X122600000Y-96000000D03*
%TD*%
D13*
%TO.P,J3,3,Pin_3*%
%TO.N,GND*%
X117520000Y-92200000D03*
%TO.P,J3,2,Pin_2*%
%TO.N,+5V*%
X120060000Y-92200000D03*
D12*
%TO.P,J3,1,Pin_1*%
%TO.N,s3*%
X122600000Y-92200000D03*
%TD*%
D13*
%TO.P,J2,3,Pin_3*%
%TO.N,GND*%
X117520000Y-88400000D03*
%TO.P,J2,2,Pin_2*%
%TO.N,+5V*%
X120060000Y-88400000D03*
D12*
%TO.P,J2,1,Pin_1*%
%TO.N,s2*%
X122600000Y-88400000D03*
%TD*%
%TO.P,J1,1,Pin_1*%
%TO.N,s1*%
X122600000Y-84520000D03*
D13*
%TO.P,J1,2,Pin_2*%
%TO.N,+5V*%
X120060000Y-84520000D03*
%TO.P,J1,3,Pin_3*%
%TO.N,GND*%
X117520000Y-84520000D03*
%TD*%
D16*
%TO.P,U1,J2-1,3V3*%
%TO.N,unconnected-(U1-3V3-PadJ2-1)*%
X126455000Y-73060000D03*
D17*
%TO.P,U1,J2-2,EN*%
%TO.N,unconnected-(U1-EN-PadJ2-2)*%
X126455000Y-75600000D03*
%TO.P,U1,J2-19,EXT_5V*%
%TO.N,unconnected-(U1-EXT_5V-PadJ2-19)*%
X126455000Y-118780000D03*
%TO.P,U1,J2-3,SENSOR_VP*%
%TO.N,unconnected-(U1-SENSOR_VP-PadJ2-3)*%
X126455000Y-78140000D03*
%TO.P,U1,J2-4,SENSOR_VN*%
%TO.N,unconnected-(U1-SENSOR_VN-PadJ2-4)*%
X126455000Y-80680000D03*
%TO.P,U1,J2-5,IO34*%
%TO.N,unconnected-(U1-IO34-PadJ2-5)*%
X126455000Y-83220000D03*
%TO.P,U1,J2-6,IO35*%
%TO.N,unconnected-(U1-IO35-PadJ2-6)*%
X126455000Y-85760000D03*
%TO.P,U1,J2-7,IO32*%
%TO.N,s1*%
X126455000Y-88300000D03*
%TO.P,U1,J2-8,IO33*%
%TO.N,s2*%
X126455000Y-90840000D03*
%TO.P,U1,J2-9,IO25*%
%TO.N,s3*%
X126455000Y-93380000D03*
%TO.P,U1,J2-10,IO26*%
%TO.N,s4*%
X126455000Y-95920000D03*
%TO.P,U1,J2-11,IO27*%
%TO.N,s5*%
X126455000Y-98460000D03*
%TO.P,U1,J2-12,IO14*%
%TO.N,s6*%
X126455000Y-101000000D03*
%TO.P,U1,J2-13,IO12*%
%TO.N,s7*%
X126455000Y-103540000D03*
%TO.P,U1,J2-14,GND1*%
%TO.N,GND*%
X126455000Y-106080000D03*
%TO.P,U1,J2-15,IO13*%
%TO.N,s8*%
X126455000Y-108620000D03*
%TO.P,U1,J2-16,SD2*%
%TO.N,unconnected-(U1-SD2-PadJ2-16)*%
X126455000Y-111160000D03*
%TO.P,U1,J2-17,SD3*%
%TO.N,unconnected-(U1-SD3-PadJ2-17)*%
X126455000Y-113700000D03*
%TO.P,U1,J2-18,CMD*%
%TO.N,unconnected-(U1-CMD-PadJ2-18)*%
X126455000Y-116240000D03*
%TO.P,U1,J3-1,GND3*%
%TO.N,unconnected-(U1-GND3-PadJ3-1)*%
X151855000Y-73060000D03*
%TO.P,U1,J3-2,IO23*%
%TO.N,unconnected-(U1-IO23-PadJ3-2)*%
X151855000Y-75600000D03*
%TO.P,U1,J3-3,IO22*%
%TO.N,unconnected-(U1-IO22-PadJ3-3)*%
X151855000Y-78140000D03*
%TO.P,U1,J3-4,TXD0*%
%TO.N,unconnected-(U1-TXD0-PadJ3-4)*%
X151855000Y-80680000D03*
%TO.P,U1,J3-5,RXD0*%
%TO.N,unconnected-(U1-RXD0-PadJ3-5)*%
X151855000Y-83220000D03*
%TO.P,U1,J3-6,IO21*%
%TO.N,unconnected-(U1-IO21-PadJ3-6)*%
X151855000Y-85760000D03*
%TO.P,U1,J3-7,GND2*%
%TO.N,unconnected-(U1-GND2-PadJ3-7)*%
X151855000Y-88300000D03*
%TO.P,U1,J3-8,IO19*%
%TO.N,s16*%
X151855000Y-90840000D03*
%TO.P,U1,J3-9,IO18*%
%TO.N,s15*%
X151855000Y-93380000D03*
%TO.P,U1,J3-10,IO5*%
%TO.N,s14*%
X151855000Y-95920000D03*
%TO.P,U1,J3-11,IO17*%
%TO.N,s13*%
X151855000Y-98460000D03*
%TO.P,U1,J3-12,IO16*%
%TO.N,s12*%
X151855000Y-101000000D03*
%TO.P,U1,J3-13,IO4*%
%TO.N,s11*%
X151855000Y-103540000D03*
%TO.P,U1,J3-14,IO0*%
%TO.N,unconnected-(U1-IO0-PadJ3-14)*%
X151855000Y-106080000D03*
%TO.P,U1,J3-15,IO2*%
%TO.N,s10*%
X151855000Y-108620000D03*
%TO.P,U1,J3-16,IO15*%
%TO.N,s9*%
X151855000Y-111160000D03*
%TO.P,U1,J3-17,SD1*%
%TO.N,unconnected-(U1-SD1-PadJ3-17)*%
X151855000Y-113700000D03*
%TO.P,U1,J3-18,SD0*%
%TO.N,unconnected-(U1-SD0-PadJ3-18)*%
X151855000Y-116240000D03*
%TO.P,U1,J3-19,CLK*%
%TO.N,unconnected-(U1-CLK-PadJ3-19)*%
X151855000Y-118780000D03*
%TD*%
D18*
%TO.N,GND*%
X119800000Y-60000000D02*
X119800000Y-57700000D01*
X122500000Y-55000000D02*
X144500000Y-55000000D01*
X119800000Y-57700000D02*
X122500000Y-55000000D01*
X144500000Y-55000000D02*
X160680000Y-71180000D01*
X160680000Y-71180000D02*
X160680000Y-88400000D01*
%TO.N,+5V*%
X127000000Y-60000000D02*
X144500000Y-60000000D01*
X144500000Y-60000000D02*
X158140000Y-73640000D01*
X158140000Y-73640000D02*
X158140000Y-88400000D01*
X120060000Y-84520000D02*
X120060000Y-66940000D01*
X120060000Y-66940000D02*
X127000000Y-60000000D01*
%TO.N,GND*%
X117520000Y-84520000D02*
X117520000Y-62280000D01*
X117520000Y-62280000D02*
X119800000Y-60000000D01*
D19*
X126455000Y-106080000D02*
X128500000Y-108125000D01*
X127500000Y-120500000D02*
X123000000Y-120500000D01*
X128500000Y-108125000D02*
X128500000Y-119500000D01*
X117520000Y-113980000D02*
X117520000Y-111200000D01*
X128500000Y-119500000D02*
X127500000Y-120500000D01*
X123000000Y-120500000D02*
X117500000Y-115000000D01*
X117500000Y-115000000D02*
X117500000Y-114000000D01*
X117500000Y-114000000D02*
X117520000Y-113980000D01*
D18*
X117520000Y-84520000D02*
X117520000Y-111200000D01*
X160680000Y-92200000D02*
X160680000Y-88400000D01*
X160680000Y-96000000D02*
X160680000Y-92200000D01*
X160680000Y-99800000D02*
X160680000Y-96000000D01*
X160680000Y-103600000D02*
X160680000Y-99800000D01*
X160680000Y-107400000D02*
X160680000Y-103600000D01*
X160680000Y-111200000D02*
X160680000Y-107400000D01*
X160680000Y-115000000D02*
X160680000Y-111200000D01*
%TO.N,+5V*%
X158140000Y-111200000D02*
X158140000Y-115000000D01*
X158140000Y-107400000D02*
X158140000Y-111200000D01*
X158140000Y-103600000D02*
X158140000Y-107400000D01*
X158140000Y-99800000D02*
X158140000Y-103600000D01*
X158140000Y-96000000D02*
X158140000Y-99800000D01*
X158140000Y-92200000D02*
X158140000Y-96000000D01*
X158140000Y-88400000D02*
X158140000Y-92200000D01*
D19*
%TO.N,s16*%
X151855000Y-90840000D02*
X153160000Y-90840000D01*
X153160000Y-90840000D02*
X155600000Y-88400000D01*
%TO.N,s15*%
X151855000Y-93380000D02*
X154420000Y-93380000D01*
X154420000Y-93380000D02*
X155600000Y-92200000D01*
%TO.N,s14*%
X155600000Y-96000000D02*
X151935000Y-96000000D01*
X151935000Y-96000000D02*
X151855000Y-95920000D01*
%TO.N,s13*%
X155600000Y-99800000D02*
X153195000Y-99800000D01*
X153195000Y-99800000D02*
X151855000Y-98460000D01*
%TO.N,s12*%
X155600000Y-103600000D02*
X154455000Y-103600000D01*
X154455000Y-103600000D02*
X151855000Y-101000000D01*
%TO.N,s11*%
X151855000Y-103540000D02*
X155600000Y-107285000D01*
X155600000Y-107285000D02*
X155600000Y-107400000D01*
%TO.N,s10*%
X155600000Y-111200000D02*
X154435000Y-111200000D01*
X154435000Y-111200000D02*
X151855000Y-108620000D01*
%TO.N,s9*%
X151855000Y-111160000D02*
X155600000Y-114905000D01*
X155600000Y-114905000D02*
X155600000Y-115000000D01*
%TO.N,s6*%
X122600000Y-103600000D02*
X123855000Y-103600000D01*
X123855000Y-103600000D02*
X126455000Y-101000000D01*
%TO.N,s5*%
X126455000Y-98460000D02*
X123940000Y-98460000D01*
X123940000Y-98460000D02*
X122600000Y-99800000D01*
%TO.N,s4*%
X122600000Y-96000000D02*
X126375000Y-96000000D01*
X126375000Y-96000000D02*
X126455000Y-95920000D01*
%TO.N,s3*%
X122600000Y-92200000D02*
X125275000Y-92200000D01*
X125275000Y-92200000D02*
X126455000Y-93380000D01*
%TO.N,s2*%
X122600000Y-88400000D02*
X124015000Y-88400000D01*
X124015000Y-88400000D02*
X126455000Y-90840000D01*
%TO.N,s1*%
X122600000Y-84520000D02*
X122675000Y-84520000D01*
X122675000Y-84520000D02*
X126455000Y-88300000D01*
D18*
%TO.N,+5V*%
X120060000Y-88400000D02*
X120060000Y-84520000D01*
X120060000Y-92200000D02*
X120060000Y-88400000D01*
X120060000Y-96000000D02*
X120060000Y-92200000D01*
X120060000Y-99800000D02*
X120060000Y-96000000D01*
X120060000Y-103600000D02*
X120060000Y-99800000D01*
X120060000Y-107400000D02*
X120060000Y-103600000D01*
X120060000Y-111200000D02*
X120060000Y-107400000D01*
D20*
%TO.N,s7*%
X122600000Y-107400000D02*
X122600000Y-107395000D01*
D19*
X122600000Y-107395000D02*
X126455000Y-103540000D01*
%TO.N,s8*%
X122600000Y-111200000D02*
X123875000Y-111200000D01*
X123875000Y-111200000D02*
X126455000Y-108620000D01*
%TD*%
M02*
