M48
; DRILL file {KiCad 8.0.4-8.0.4-0~ubuntu22.04.1} date 2024-09-21T05:33:09+0530
; FORMAT={-:-/ absolute / inch / decimal}
; #@! TF.CreationDate,2024-09-21T05:33:09+05:30
; #@! TF.GenerationSoftware,Kicad,Pcbnew,8.0.4-8.0.4-0~ubuntu22.04.1
; #@! TF.FileFunction,Plated,1,2,PTH
FMAT,2
INCH
; #@! TA.AperFunction,Plated,PTH,ComponentDrill
T1C0.0394
; #@! TA.AperFunction,Plated,PTH,ComponentDrill
T2C0.0409
; #@! TA.AperFunction,Plated,PTH,ComponentDrill
T3C0.1772
%
G90
G05
T1
X4.6268Y-3.3276
X4.6268Y-3.4803
X4.6268Y-3.6299
X4.6268Y-3.7795
X4.6268Y-3.9291
X4.6268Y-4.0787
X4.6268Y-4.2283
X4.6268Y-4.378
X4.7268Y-3.3276
X4.7268Y-3.4803
X4.7268Y-3.6299
X4.7268Y-3.7795
X4.7268Y-3.9291
X4.7268Y-4.0787
X4.7268Y-4.2283
X4.7268Y-4.378
X4.8268Y-3.3276
X4.8268Y-3.4803
X4.8268Y-3.6299
X4.8268Y-3.7795
X4.8268Y-3.9291
X4.8268Y-4.0787
X4.8268Y-4.2283
X4.8268Y-4.378
X6.126Y-3.4803
X6.126Y-3.6299
X6.126Y-3.7795
X6.126Y-3.9291
X6.126Y-4.0787
X6.126Y-4.2283
X6.126Y-4.378
X6.126Y-4.5276
X6.226Y-3.4803
X6.226Y-3.6299
X6.226Y-3.7795
X6.226Y-3.9291
X6.226Y-4.0787
X6.226Y-4.2283
X6.226Y-4.378
X6.226Y-4.5276
X6.326Y-3.4803
X6.326Y-3.6299
X6.326Y-3.7795
X6.326Y-3.9291
X6.326Y-4.0787
X6.326Y-4.2283
X6.326Y-4.378
X6.326Y-4.5276
T2
X4.9785Y-2.8764
X4.9785Y-2.9764
X4.9785Y-3.0764
X4.9785Y-3.1764
X4.9785Y-3.2764
X4.9785Y-3.3764
X4.9785Y-3.4764
X4.9785Y-3.5764
X4.9785Y-3.6764
X4.9785Y-3.7764
X4.9785Y-3.8764
X4.9785Y-3.9764
X4.9785Y-4.0764
X4.9785Y-4.1764
X4.9785Y-4.2764
X4.9785Y-4.3764
X4.9785Y-4.4764
X4.9785Y-4.5764
X4.9785Y-4.6764
X5.9785Y-2.8764
X5.9785Y-2.9764
X5.9785Y-3.0764
X5.9785Y-3.1764
X5.9785Y-3.2764
X5.9785Y-3.3764
X5.9785Y-3.4764
X5.9785Y-3.5764
X5.9785Y-3.6764
X5.9785Y-3.7764
X5.9785Y-3.8764
X5.9785Y-3.9764
X5.9785Y-4.0764
X5.9785Y-4.1764
X5.9785Y-4.2764
X5.9785Y-4.3764
X5.9785Y-4.4764
X5.9785Y-4.5764
X5.9785Y-4.6764
T3
X4.7165Y-2.3622
X5.0Y-2.3622
M30
